<?xml version="1.0" encoding="UTF-8" standalone="no"?>
<svg
   version="1.1"
   id="Layer_1"
   x="0px"
   y="0px"
   width="335.39795"
   viewBox="0 0 335.39795 93.601143"
   enable-background="new 0 0 336 224"
   xml:space="preserve"
   sodipodi:docname="my-logo.svg"
   inkscape:export-filename="file (3).png"
   inkscape:export-xdpi="96"
   inkscape:export-ydpi="96"
   inkscape:version="1.2.2 (732a01da63, 2022-12-09)"
   height="93.601143"
   xmlns:inkscape="http://www.inkscape.org/namespaces/inkscape"
   xmlns:sodipodi="http://sodipodi.sourceforge.net/DTD/sodipodi-0.dtd"
   xmlns="http://www.w3.org/2000/svg"
   xmlns:svg="http://www.w3.org/2000/svg"><defs
   id="defs341"><clipPath
     clipPathUnits="userSpaceOnUse"
     id="clipPath3942"><path
       style="vector-effect:non-scaling-stroke;fill:#000000;stroke-width:0.582655;-inkscape-stroke:hairline"
       d="m 142.78544,130.21522 c 1.03011,1.03011 2.02533,2.09632 3.09031,3.09032 0.74114,0.69172 1.89255,1.34181 2.80938,1.68562 0.51059,0.19147 1.27458,-0.1301 1.68563,0.28094 0.12986,0.12987 -0.0848,0.67319 0,0.84281 0.19091,0.38184 0.65189,0.74191 0.84281,1.12375 0.19898,0.39797 0.14529,0.99776 0.28094,1.40469 0.21749,0.65248 1.55484,1.37777 2.24749,1.68562 2.27948,1.0131 1.03566,0.30236 3.37125,0.56187 0.99139,0.11016 2.10174,0.84282 3.09031,0.84282 0.0936,0 0,-0.1873 0,-0.28094 0.18729,0 0.38018,-0.0454 0.56187,0 1.37597,0.34399 2.55717,1.0607 3.93313,1.40468 1.10524,0.27632 2.26298,0.29801 3.37125,0.56188 2.15546,0.5132 4.10038,1.55409 6.18062,2.2475 2.16429,0.72143 9.13844,0.28094 11.23749,0.28094 1.53388,0 13.10269,0.33412 14.32781,0 1.21804,-0.33219 4.59813,-2.1586 5.89968,-2.80938 0.11846,-0.0592 0.1553,-0.23905 0.28094,-0.28094 0.42141,-0.14046 0.98328,0.14048 1.40469,0 0.99538,-0.33178 1.8859,-1.22388 2.80937,-1.68562 1.10049,-0.55025 2.33074,-0.99195 3.37125,-1.68562 0.22039,-0.14692 0.33475,-0.4256 0.56188,-0.56188 0.25393,-0.15236 0.61156,-0.0959 0.84281,-0.28093 0.26366,-0.21093 0.34572,-0.58343 0.56187,-0.84281 0.6181,-0.74172 1.10462,-0.82369 1.68563,-1.40469 0.46628,-0.46629 0.95333,-1.23427 1.40468,-1.68562 0.93333,-0.93334 1.68409,-0.95335 2.52844,-1.96657 0.38387,-0.46064 0.62483,-1.07207 1.12375,-1.40469 0.17423,-0.11615 0.43624,-0.11342 0.56187,-0.28093 1.09492,-1.45989 0.0329,-0.37964 0.28094,-1.12375 0.26286,-0.78856 0.73196,-2.0258 1.12375,-2.80938 0.0592,-0.11845 0.23906,-0.15529 0.28094,-0.28093 0.26791,-0.80373 0,-2.53624 0,-3.37125 0,-0.69615 0.31279,-2.46472 0,-3.09031 -0.65832,-1.31664 -1.46367,-1.24172 -1.68563,-1.68563 -0.17345,-0.34689 -0.46544,-1.15311 -0.84281,-1.40468 -0.60097,-0.40065 -1.37071,-0.4853 -1.96656,-0.84282 -0.39937,-0.23962 -0.69227,-0.69898 -1.12375,-0.84281 -0.93524,-0.31175 -2.49058,0.44033 -3.37125,0 -0.11845,-0.0592 -0.16248,-0.22171 -0.28093,-0.28094 -0.40159,-0.20078 -4.2922,-0.0676 -4.495,0 -0.12112,0.0404 -1.34121,0.54601 -1.40469,0.56188 -0.76644,0.19161 -1.20012,0.0893 -1.96656,0.28094 -0.32757,0.0819 -0.52249,0.4551 -0.84282,0.56187 -0.17768,0.0592 -0.42944,-0.13243 -0.56187,0 -0.0662,0.0662 0.0803,0.23276 0,0.28094 -1.04391,0.62635 -2.22325,0.99951 -3.37125,1.40469 -0.92195,0.32539 -1.9016,0.4797 -2.80937,0.84281 -0.50699,0.2028 -0.9057,0.62104 -1.40469,0.84281 -1.04979,0.46657 -2.51637,0.93445 -3.65218,1.12375 -0.92764,0.15461 -1.88041,0.40705 -2.80938,0.56188 -0.99366,0.1656 -2.11787,-0.24312 -3.09031,0 -1.02132,0.25532 -2.0695,0.30667 -3.09031,0.56187 -0.64841,0.1621 -2.66027,-0.43004 -3.09031,0 -0.0662,0.0662 0.0662,0.21472 0,0.28094 -0.55148,0.55148 -7.27466,0.34009 -7.86625,0.28093 -1.14025,-0.11402 -2.52992,-0.33742 -3.65218,-0.56187 -0.41067,-0.0821 -0.72644,-0.42944 -1.12375,-0.56187 -0.7326,-0.24421 -1.48304,-0.45267 -2.2475,-0.56188 -0.27811,-0.0397 -0.56733,0.0551 -0.84281,0 -0.20534,-0.0411 -0.35873,-0.23015 -0.56187,-0.28094 -0.18171,-0.0454 -0.39436,0.0838 -0.56188,0 -0.0838,-0.0419 0.0662,-0.21471 0,-0.28093 -0.33109,-0.33109 -0.99538,0.22739 -1.40469,0 -1.2971,-0.72062 -2.19373,-2.42924 -3.37125,-3.37125 -0.9081,-0.72649 -1.74331,-0.7684 -2.80937,-1.12375 -0.51802,-0.17268 -0.87965,-0.69281 -1.40469,-0.84282 -0.54025,-0.15435 -1.12375,0 -1.68562,0 -1.87795,0 -5.76493,-0.20784 -7.30437,0.56188 -0.62117,0.31058 -0.0872,0.17436 -0.28094,0.56187 -0.17768,0.35537 -0.62242,0.51224 -0.84281,0.84282 -0.33335,0.50001 -0.64267,1.92799 -0.84282,2.52844 -0.15117,0.45352 -0.41069,0.10834 -0.56187,0.56187 -0.11845,0.35536 0.0908,0.76035 0,1.12375 -0.24406,0.97624 -0.80429,1.85099 -1.12375,2.80937 -0.3585,1.07551 0.23541,5.19656 0,5.33781 -0.43243,0.25946 -0.93646,0.37459 -1.40469,0.56187 z"
       id="path3944" /></clipPath><clipPath
     clipPathUnits="userSpaceOnUse"
     id="clipPath3948"><path
       style="vector-effect:non-scaling-stroke;fill:#000000;stroke-width:0.537441;-inkscape-stroke:hairline"
       d="m 161.31968,138.72561 c -1.63661,-0.3853 -2.86576,-1.41329 -4.40532,-2.0731 -0.25107,-0.1076 -0.54318,-0.1186 -0.77741,-0.25913 -0.54154,-0.32493 -1.01866,-0.93824 -1.55482,-1.29569 -1.13179,-0.75452 0.0854,0.11485 -1.03655,-0.25913 -0.52603,-0.17535 -0.93562,-0.57101 -1.55482,-0.77741 -0.44771,-0.14924 -2.04078,-0.50212 -2.59136,-0.77742 -0.21853,-0.10925 -0.29976,-0.40901 -0.51828,-0.51827 -0.5236,-0.2618 -1.48212,-0.37288 -1.81396,-1.03654 -0.19394,-0.38789 0.0842,-1.13403 0,-1.55482 -0.18156,-0.90783 -0.4341,-1.73312 -0.77741,-2.59137 -0.13839,-0.34598 -0.41499,-0.41499 -0.51827,-0.51827 -0.18324,-0.18324 0,-0.51827 0,-0.77741 0,-1.45022 0.49308,-3.08445 1.55482,-4.14619 0.49284,-0.49284 3.07756,-2.74043 3.62791,-2.8505 0.25411,-0.0508 0.53681,0.0962 0.77741,0 0.22685,-0.0907 0.29976,-0.40901 0.51828,-0.51828 0.62193,-0.31096 1.7103,0.31097 2.33223,0 0.32778,-0.16389 0.47248,-0.57412 0.77741,-0.7774 0.40503,-0.27003 1.14321,-0.31247 1.55482,-0.51828 0.21852,-0.10926 0.29975,-0.40901 0.51827,-0.51827 0.43291,-0.21646 1.07931,-0.16403 1.55482,-0.25913 1.87425,-0.37486 3.54579,-0.28261 5.44187,0.25913 2.57349,0.73528 4.15428,2.72498 6.47841,3.88705 0.70513,0.35256 2.61404,0.54216 3.36878,0.25914 0.76718,-0.2877 1.04442,-0.93132 1.81396,-0.77741 1.88536,0.37707 0.25158,0.13663 2.59136,1.03654 1.38623,0.53316 3.69186,1.40574 5.18273,1.55482 2.68798,0.2688 0.59515,-0.5018 4.14619,0.25914 0.37773,0.0809 0.69103,0.34551 1.03655,0.51827 0.69103,0.0864 1.37954,0.19609 2.07309,0.25914 2.63916,0.23992 5.38867,0 8.03324,0 1.90356,0 3.85645,0.10977 5.701,-0.25914 0.1894,-0.0379 0.3817,-0.12256 0.51827,-0.25914 0.21367,-0.21367 -0.25913,-0.98815 -0.25913,-1.29568 0,-0.23983 0.16552,-1.64844 0,-1.81395 -0.0691,-0.0691 -0.53555,0.15548 -0.25914,-0.25914 0.26194,-0.39291 0.92248,-0.82329 1.29568,-1.03655 0.87362,-0.49921 1.8972,-0.97792 2.85051,-1.29568 1.32248,-0.44083 4.41394,0.30924 5.96014,0 0.26785,-0.0536 0.50956,-0.20557 0.77741,-0.25914 0.1694,-0.0339 0.36375,0.0773 0.51827,0 0.0773,-0.0386 -0.0611,-0.19805 0,-0.25913 0.0774,-0.0774 1.00319,0.008 1.03655,0 0.92904,-0.23226 3.42487,-0.73535 4.40532,0 0.15452,0.11588 0.12256,0.38169 0.25914,0.51827 0.19304,0.19304 0.89012,0.37185 1.03654,0.51827 0.10859,0.10859 0.18061,0.62036 0.25914,0.77741 0.0864,0.0864 0.17276,0.17276 0.25914,0.25914 0.0864,0.0864 0.2045,0.14987 0.25913,0.25913 0.0773,0.15452 -0.12216,0.39612 0,0.51828 0.0611,0.0611 0.19806,-0.0611 0.25914,0 0.19066,0.19066 0.25913,2.83899 0.25913,3.36877 0,0.37117 0.23624,2.096 0,2.33224 -0.0611,0.0611 -0.19805,-0.0611 -0.25913,0 -0.2306,0.2306 -0.39785,1.10589 -0.77741,1.29568 -0.0773,0.0386 -0.19806,-0.0611 -0.25914,0 -0.0611,0.0611 0,0.17276 0,0.25913 -0.0864,0.17276 -0.12255,0.3817 -0.25913,0.51828 -0.13658,0.13658 -0.41114,0.0984 -0.51827,0.25913 -0.14375,0.21562 0.18323,0.59418 0,0.77741 -0.0611,0.0611 -0.19806,-0.0611 -0.25914,0 -0.0611,0.0611 0.0611,0.19806 0,0.25914 -0.23496,0.23495 -0.26083,0.003 -0.51827,0.51827 -0.14855,0.29708 -0.5407,0.36046 -0.77742,0.51828 -0.59276,0.39517 -1.15068,1.24815 -1.55482,1.81395 -0.75414,1.0558 -2.05473,3.60956 -2.8505,4.40533 -0.58175,1.7725 -2.46571,1.84326 -3.62791,2.8505 -1.06261,0.92093 -2.02135,1.96007 -3.10964,2.8505 -2.85125,2.33284 -2.01234,1.21528 -4.66446,3.10964 -2.71093,1.93638 -0.5339,0.5339 -2.59137,2.59137 -0.0314,0.0314 -7.07096,0 -8.5515,0 -2.85051,0 -5.70101,0 -8.55151,0 -0.95017,0 -1.90768,0.11785 -2.85051,0 -1.34703,-0.16838 -3.33486,-1.37076 -4.66445,-1.81396 -0.99186,-0.33062 -0.98988,-0.12179 -1.81396,-0.25914 -0.93828,-0.15638 -1.64715,-0.65938 -2.59137,-0.7774 -1.94694,-0.24337 -3.74362,-0.54721 -5.701,-1.03655 -0.51827,-0.12957 0,0.25914 -0.77741,0 -0.2955,-0.0985 -0.65699,-1.05484 -0.77741,-1.29569 -0.28363,-0.56725 -0.62144,-0.31071 -1.03655,-0.51827 -0.15452,-0.0773 0.12216,-0.39611 0,-0.51827 -0.33371,-0.33371 -0.9173,-0.07 -1.29568,-0.25914 -0.33238,-0.16619 -0.69153,-0.6624 -1.03654,-0.77741 -0.1639,-0.0546 -0.36376,0.0773 -0.51828,0 -0.0505,-0.0253 -0.20291,-0.46205 -0.25914,-0.51827 -0.12215,-0.12216 -0.48439,0.1694 -0.51827,0 -0.0847,-0.42351 0,-0.86379 0,-1.29568 z"
       id="path3950" /></clipPath></defs><sodipodi:namedview
   id="namedview339"
   pagecolor="#ffffff"
   bordercolor="#000000"
   borderopacity="0.25"
   inkscape:showpageshadow="2"
   inkscape:pageopacity="0.0"
   inkscape:pagecheckerboard="0"
   inkscape:deskcolor="#d1d1d1"
   showgrid="false"
   inkscape:zoom="2.0739694"
   inkscape:cx="92.817184"
   inkscape:cy="34.716038"
   inkscape:window-width="1600"
   inkscape:window-height="837"
   inkscape:window-x="-8"
   inkscape:window-y="-8"
   inkscape:window-maximized="1"
   inkscape:current-layer="Layer_1" />






<path
   style="fill:#000000;stroke-width:0.77338"
   d="m 28.962381,92.500259 c -0.216995,-0.68407 -0.531761,-1.69842 -0.699492,-2.25411 -0.16773,-0.55568 -2.630429,-2.37032 -5.472672,-4.03252 C 12.783449,80.361449 3.917169,68.900289 1.1779554,58.276199 -0.37524715,52.252039 -0.39534783,41.874889 1.1348027,36.000239 7.4790273,11.643132 34.188276,-4.0180229 60.655604,1.0998151 c 4.586385,0.886844 5.638585,0.882527 6.939156,-0.02845 3.120613,-2.185758 6.602534,-0.86644801 6.602534,2.501716 0,1.269318 1.407653,2.655192 5.3776,5.294408 21.372696,14.2085299 27.696496,39.7254599 15.150549,61.1334899 -2.925422,4.99186 -10.643672,12.57302 -16.296189,16.00676 -2.548419,1.54807 -7.414327,3.77983 -10.813118,4.95946 -5.494528,1.90699 -7.294238,2.14826 -16.233564,2.17628 -5.529669,0.0173 -11.44603,-0.0751 -13.147468,-0.20546 -1.701437,-0.13034 -4.395074,-0.002 -5.985855,0.2845 -2.284404,0.41187 -2.975257,0.26006 -3.286867,-0.7223 z m 33.592003,-11.16003 c 3.931648,-4.13303 5.534031,-9.54226 5.997355,-20.24557 0.308456,-7.12572 0.06358,-10.44904 -1.231623,-16.71632 -0.88914,-4.30233 -2.099179,-8.97011 -2.688982,-10.37283 -0.976332,-2.32202 -1.141501,-2.41796 -1.844442,-1.07145 -1.415635,2.71174 -17.977854,42.68815 -17.977854,43.39335 0,0.86351 5.254757,5.92098 7.347113,7.07128 0.850719,0.46768 2.90573,0.86093 4.566688,0.87386 2.509085,0.0196 3.495556,-0.47647 5.831745,-2.93232 z M 47.804712,41.771869 C 55.40172,23.741839 57.09496,19.066068 56.45809,17.876068 55.08008,15.301229 48.772181,10.264188 46.308724,9.7714971 33.579044,7.2255601 28.087673,32.428789 35.673891,58.581169 c 0.894554,3.08386 1.864776,5.60701 2.156054,5.60701 0.29127,0 4.779917,-10.08734 9.974767,-22.41631 z m 62.760758,50.5651 c -4.22363,-1.13499 -7.7531,-3.59132 -7.7531,-5.39572 0,-0.52364 1.19432,-2.3816 2.65408,-4.12881 3.31359,-3.96611 4.65117,-9.81833 4.09705,-17.92548 -0.40036,-5.85754 -1.1589,-7.88953 -4.85057,-12.99389 -2.45138,-3.38944 -2.39888,-4.09789 0.55278,-7.45965 1.72746,-1.96747 6.00636,-4.54936 14.46174,-8.72623 10.96305,-5.41563 12.41573,-5.93212 16.68782,-5.93323 l 4.67942,-0.002 0.38669,3.32589 0.38669,3.32588 2.70684,-2.05906 c 9.7293,-7.40099 23.23712,-6.78337 30.63081,1.40055 2.59021,2.86707 2.77445,3.38856 2.4372,6.89842 -0.60681,6.31521 -7.24622,13.02178 -12.88115,13.01146 -3.54759,-0.006 -5.95258,-1.64172 -10.22942,-6.95532 -6.36371,-7.90635 -12.2126,-8.68394 -14.46462,-1.92304 -1.33208,3.99905 -0.81786,26.43465 0.70725,30.85795 0.57397,1.66468 2.18578,4.13598 3.58181,5.49179 4.56561,4.43406 2.75791,7.35038 -5.80536,9.36567 -5.93795,1.39744 -22.51886,1.29319 -27.98596,-0.17597 z m 76.93205,0.20297 c -8.44299,-2.17488 -9.96935,-4.84987 -5.55527,-9.73574 3.05741,-3.38419 4.02386,-7.16302 3.96993,-15.5225 -0.0478,-7.40396 -0.87015,-10.38015 -3.85581,-13.95374 -1.47364,-1.76384 -2.67935,-3.86908 -2.67935,-4.67834 0,-3.11015 5.25425,-7.41138 14.90961,-12.20531 11.53763,-5.72848 15.22806,-7.05825 19.58832,-7.05825 4.40938,0 4.69518,1.16825 2.95835,12.09213 -0.76457,4.80884 -1.36095,13.03315 -1.39446,19.22977 -0.07,12.94179 1.16603,18.12154 5.45763,22.87182 2.42248,2.6814 2.68,3.32507 1.96138,4.90225 -1.44856,3.17927 -6.85105,4.47823 -19.89273,4.78296 -7.78321,0.18186 -12.87319,-0.0568 -15.4676,-0.72505 z m 43.18501,-0.45959 c -2.84679,-1.73585 -3.69123,-3.74449 -2.66061,-6.32872 0.4041,-1.01323 9.06024,-11.16221 19.23588,-22.55327 10.17565,-11.39106 18.94868,-21.5472 19.49565,-22.56921 1.7462,-3.26281 0.54337,-4.53017 -3.8948,-4.10373 -5.2228,0.50185 -8.68476,3.41528 -12.67953,10.67051 -3.97782,7.22443 -6.76106,9.25844 -12.66876,9.25844 -8.15038,0 -14.16483,-5.02574 -12.90093,-10.78017 1.34026,-6.10225 7.51841,-12.17022 15.47796,-15.20195 3.52736,-1.34355 6.17579,-1.47288 30.16182,-1.47288 27.63105,0 30.39557,0.30425 32.12485,3.53545 1.91688,3.5817 1.07652,4.78744 -18.62239,26.71945 -10.65142,11.85887 -19.5635,22.34386 -19.80462,23.29997 -0.69821,2.76874 0.21684,4.06197 2.87416,4.06197 5.53933,0 10.53094,-4.23009 14.67214,-12.43374 2.96899,-5.88154 5.71329,-7.66733 11.78877,-7.67126 5.39521,-0.004 8.97866,1.37267 11.32809,4.35033 3.512,4.45108 0.45339,12.55144 -6.62254,17.53902 -7.233,5.09829 -7.13992,5.08552 -37.4057,5.12998 -25.78848,0.0379 -27.60339,-0.0502 -29.89944,-1.45019 z m 85.19613,0.40013 c -7.03248,-3.13901 -9.98676,-11.3934 -6.66597,-18.62504 1.68969,-3.6796 3.41438,-5.32854 7.24948,-6.93093 3.89082,-1.6257 7.19568,-1.49277 11.21075,0.45088 8.23302,3.98554 10.27849,14.48928 4.22304,21.68576 -3.59869,4.27682 -10.69995,5.79277 -16.0173,3.41933 z M 192.87284,27.524849 c -3.17317,-1.38215 -6.31078,-5.25987 -7.33567,-9.065993 -3.42459,-12.7179549 12.26089,-22.3281879 22.19998,-13.6015569 9.77545,8.5829599 3.86122,23.8444399 -9.19412,23.7251099 -1.82144,-0.0167 -4.37302,-0.49255 -5.67019,-1.05756 z"
   id="path4123"
   inkscape:export-filename="my-logo.svg"
   inkscape:export-xdpi="96"
   inkscape:export-ydpi="96" /></svg>
